# xmcd CD database file
#
# Track frame offsets:
#	150
#	12321
#	22862
#	35011
#	47955
#	62137
#	72607
#	86499
#	98645
#	110969
#	124034
#	142832
#	162894
#	178699
#	194835
#	202968
#	216549
#
# Disc length: 3090 seconds
#
# Revision: 0
# Processed by: cddbd v1.5.1PL2 Copyright (c) Steve Scherf et al.
# Submitted via: CDex 1.51
#
DISCID=fe0c1011
DTITLE=Various Artist - Cole Porter: De-Lovely [CD1]
DYEAR=1900
DGENRE=Jazz
TTITLE0=Eartha Kitt - Let's Do It (Let's Fall In Love)
TTITLE1=Tony Bennett - Anything Goes
TTITLE2=Sarah Vaughan and Billy Eckstine - I Love You
TTITLE3=Irving Aaronson and His Commanders - Let's Misbehave
TTITLE4=Frank Sinatra - Begin The Beguine
TTITLE5=Nat King Cole - True Love
TTITLE6=Eddy Duchin and Jerry Cooper - It's De-Lovely
TTITLE7=Lena Horne - What Is This Thing Called Love
TTITLE8=Mel Torme - Night And Day
TTITLE9=Judy Garland and Gene Kelly - Be A Clown
TTITLE10=Engelbert Humperdinck - In The Still Of The Night
TTITLE11=Dinah Washington - So In Love
TTITLE12=Benny Goodman and Peggy Mann - Ev'ry Time We Say Goodbye
TTITLE13=Fred Warning's Pennsylvanians - Love For Sale
TTITLE14=Tony Bennett - Experiment
TTITLE15=Peggy Lee - Just One Of Those Things
TTITLE16=Cole Porter - You're The Top
EXTD=
EXTT0=
EXTT1=
EXTT2=
EXTT3=
EXTT4=
EXTT5=
EXTT6=
EXTT7=
EXTT8=
EXTT9=
EXTT10=
EXTT11=
EXTT12=
EXTT13=
EXTT14=
EXTT15=
EXTT16=
PLAYORDER=
